<svg id="Capa_1" enable-background="new 0 0 508.258 508.258" height="512" viewBox="0 0 508.258 508.258" width="512" xmlns="http://www.w3.org/2000/svg"><path id="XMLID_1403_" d="m240.202 184.836-16.217-25.238-37.481 24.085-17.36-27.273 36.241-23.614-16.377-25.135-35.975 23.44-16.722-26.27 35.037-22.335-16.125-25.297-34.852 22.217c-4.366-8.604-5.612-18.368-3.494-27.91 2.421-10.899 8.94-20.202 18.358-26.197l-16.108-25.309c-16.178 10.298-27.378 26.279-31.535 45.001-4.157 18.721-.776 37.941 9.521 54.119l122.322 191.17 18.309-26.109-35.131-55.19z" fill="#bde6fc"/><path id="XMLID_1347_" d="m454.457 508.258c-34.582 0-62.717-28.135-62.717-62.718h30c0 18.041 14.677 32.718 32.717 32.718z" fill="#99d3f2"/><path id="XMLID_1385_" d="m453.011 372.76c-4.545-20.463-16.786-37.932-34.47-49.188-17.683-11.256-38.688-14.953-59.155-10.408-11.875 2.638-22.731 7.883-31.961 15.264l-41.008-64.323 111.71-175.496c16.316-25.633 8.764-59.639-16.869-75.955l-55.144 86.629-145.24 229.211c-2.192-1.746-4.479-3.396-6.876-4.922-17.684-11.257-38.692-14.953-59.155-10.408-20.464 4.545-37.933 16.786-49.189 34.47-11.256 17.683-14.952 38.692-10.407 59.155s16.786 37.933 34.47 49.188c12.751 8.117 27.229 12.302 41.986 12.302 5.709 0 11.461-.627 17.169-1.895 20.463-4.545 37.932-16.786 49.188-34.47 9.097-14.292 13.25-30.756 12.112-47.349l43.636-69.234 44.25 69.569c-.44 7.249.113 14.602 1.731 21.887 4.545 20.463 16.786 37.933 34.47 49.188 12.751 8.117 27.229 12.302 41.987 12.302 5.708 0 11.46-.627 17.168-1.895 20.464-4.545 37.933-16.786 49.189-34.47 11.256-17.68 14.953-38.688 10.408-59.152zm-280.259 43.046c-9.23 14.501-24.937 22.434-40.972 22.433-8.9 0-17.905-2.446-25.954-7.569-22.55-14.354-29.218-44.377-14.863-66.927 6.953-10.923 17.744-18.485 30.385-21.292 3.526-.783 7.078-1.17 10.605-1.17 9.115 0 18.061 2.586 25.937 7.599 10.923 6.953 18.485 17.744 21.292 30.385 2.807 12.64.524 25.618-6.43 36.541zm244.543 0c-14.354 22.549-44.376 29.219-66.927 14.864-10.923-6.953-18.485-17.744-21.292-30.385-2.808-12.641-.524-25.618 6.43-36.542 6.953-10.923 17.743-18.485 30.384-21.292 3.527-.783 7.078-1.17 10.605-1.17 9.115 0 18.061 2.586 25.937 7.599 22.549 14.354 29.217 44.377 14.863 66.926z" fill="#e1f1fa"/><path id="XMLID_1507_" d="m453.011 372.76c-4.545-20.463-16.786-37.932-34.47-49.188-17.683-11.256-38.688-14.953-59.155-10.408-11.875 2.638-22.731 7.883-31.961 15.264l-41.008-64.323 111.71-175.496c16.316-25.633 8.764-59.639-16.869-75.955l-55.144 86.629-72.307 114.112v101.938l44.25 69.569c-.44 7.249.113 14.602 1.731 21.887 4.545 20.463 16.786 37.933 34.47 49.188 12.751 8.117 27.229 12.302 41.987 12.302 5.708 0 11.46-.627 17.168-1.895 20.464-4.545 37.933-16.786 49.189-34.47 11.257-17.682 14.954-38.69 10.409-59.154zm-35.716 43.046c-14.354 22.549-44.376 29.219-66.927 14.864-10.923-6.953-18.485-17.744-21.292-30.385-2.808-12.641-.524-25.618 6.43-36.542 6.953-10.923 17.743-18.485 30.384-21.292 3.527-.783 7.078-1.17 10.605-1.17 9.115 0 18.061 2.586 25.937 7.599 22.549 14.354 29.217 44.377 14.863 66.926z" fill="#bde6fc"/></svg>