<svg xmlns="http://www.w3.org/2000/svg" viewBox="0 0 70.78 70.78"><defs><style>.cls-1{fill:#27353e;}</style></defs><title>Ativo 85</title><g id="Camada_2" data-name="Camada 2"><g id="_1" data-name=" 1"><path class="cls-1" d="M69.43,45.09a35.46,35.46,0,0,0-2-24.8c-17-17.41-37.06-9.76-41.81-7.58l-1,.51s.36-.2,1-.51c15.76-7.55,28-5.25,37,0A35.39,35.39,0,1,0,54.76,65C58.47,27.55,30.14,20.74,24,19.71l-1.15-.17s.42,0,1.15.17c31.6,4.78,35,30.22,34.82,42.18A35.45,35.45,0,0,0,67,51.24C60.29,15.13,31.62,16.1,25.51,16.73l-1.16.15s.42-.08,1.16-.15C54.67,13.23,65.53,32.9,69.43,45.09ZM26.19,64.48S23.17,67,20,66.09c-2.5-.71-4-3.11-3.63-4.77s.49-2.69-.41-2.8-1.76-.07-2-1.1-.21-2.7,2.32-3.25c0,0-2.22-.28-2.39-.28s-1.38.28-1.62,0-2-.69-1-2.87a2.07,2.07,0,0,0-1-2.88,3.37,3.37,0,0,0-1.3-.35c-.63,0-2.9,0-3-2.13s1.87-3.63,2.39-5a27.86,27.86,0,0,0,1.12-5.37l.74-.39-.8-3.57,2.05,3.23,4.43-2.16C14.11,30.24,13.54,26,13.54,26a38,38,0,0,0,5.12,6.18s7.12-3.42,12.56.09c9.07,5.84,8.79,18,7.1,26.84-.42,0-.84,0-1.24.09C32,59.78,26.19,64.48,26.19,64.48Z"/><path class="cls-1" d="M17.16,36a8.65,8.65,0,0,0-3,1.93,4.08,4.08,0,0,1-3.5.43S13.78,40.24,16,38l1.76-1.38s-2,1.94-2,3.56l.27.36s-.29-.85.74-2c0,0,4.28-2.94,3.57-5.26C20.42,33.29,20,35.18,17.16,36Z"/></g></g></svg>